<?xml version="1.0" encoding="iso-8859-1"?>
<!-- Generator: Adobe Illustrator 19.0.0, SVG Export Plug-In . SVG Version: 6.00 Build 0)  -->
<svg version="1.1" id="Capa_1" xmlns="http://www.w3.org/2000/svg" xmlns:xlink="http://www.w3.org/1999/xlink" x="0px" y="0px"
	 viewBox="0 0 511.977 511.977" style="enable-background:new 0 0 511.977 511.977;" xml:space="preserve">
<g>
	<path style="fill:#717275;" d="M511.199,306.785v1.73c0.069,0.079,0.069,0.197,0,0.277v47.187
		c-1.358,9.185-7.192,17.094-15.568,21.103L286.819,502.383c-22.154,12.151-48.827,12.796-71.542,1.73L16.082,388.497
		c-7.66-3.563-12.924-10.844-13.907-19.235c-0.069-0.644-0.069-1.293,0-1.937l-1.454-1.038v-49.47l2.006-0.069
		c2.419-7.683,7.831-14.068,15.014-17.712l208.883-125.302c4.077-2.453,8.447-4.382,13.007-5.743l48.778-1.384
		c4.359,2.422,9.479,5.258,9.686,5.397l199.127,115.615C504.858,291.191,510.132,298.424,511.199,306.785z"/>
	<path style="fill:#B4B4B3;" d="M288.411,166.608c4.359,2.422,9.479,5.258,9.686,5.397l199.126,115.615
		c19.304,11.209,18.612,30.097-1.591,42.275L286.819,455.126c-22.135,12.22-48.842,12.866-71.542,1.73L16.082,341.31
		c-19.235-11.278-18.543-30.167,1.661-42.275l208.882-125.302c4.078-2.453,8.448-4.382,13.008-5.743"/>
	<path style="fill:#919D9E;" d="M288.391,227.405c23.177,1.259,45.784,7.657,66.185,18.73
		c47.061,27.387,45.251,73.503-4.171,103.172c-49.343,29.669-127.568,31.479-174.708,4.171
		c-47.14-27.387-45.251-73.582,4.092-103.172c18.917-10.906,39.758-18.067,61.384-21.091L288.391,227.405z"/>
	<path style="fill:#A5B4B4;" d="M288.391,234.724c13.559,1.474,26.693,5.619,38.64,12.198c32.581,18.887,31.243,50.917-2.833,71.378
		c-34.155,20.54-88.456,21.799-120.958,2.912c-32.581-18.887-31.322-50.917,2.833-71.457c10.88-6.317,22.745-10.76,35.099-13.143
		L288.391,234.724z"/>
	<path style="fill:#C9CED1;" d="M241.172,139.108l0,136.332c-0.014,8.444,4.482,16.254,11.793,20.48
		c7.311,4.226,16.322,4.226,23.633,0c7.311-4.226,11.807-12.035,11.793-20.48l0-136.332
		C272.736,141.412,256.828,141.412,241.172,139.108z"/>
	<path style="fill:#B4B4B3;" d="M511.2,306.854c0.069,0.551,0.069,1.109,0,1.661"/>
	<g>
		<circle style="fill:#D8625E;" cx="264.771" cy="79.976" r="79.976"/>
		
			<ellipse transform="matrix(-0.0575 -0.9983 0.9983 -0.0575 -145.9811 697.3004)" style="fill:#D8625E;" cx="256.15" cy="417.556" rx="15.491" ry="26.333"/>
	</g>
	<path style="fill:#DADCDA;" d="M87.417,353.628c-0.61,0.001-1.209-0.159-1.737-0.466c-14.581-8.466-22.669-20.155-22.763-32.926
		c-0.095-13.716,8.872-26.689,25.264-36.52c1.638-0.973,3.753-0.438,4.732,1.196c0.979,1.634,0.452,3.752-1.178,4.737
		c-13.993,8.399-21.973,19.527-21.898,30.541c0.074,10.216,6.939,19.804,19.318,26.986c1.354,0.785,2.013,2.381,1.606,3.892
		C90.353,352.579,88.982,353.629,87.417,353.628L87.417,353.628z"/>
	<path style="fill:#FE9189;" d="M217.565,80.878c-0.918,0.001-1.798-0.364-2.447-1.013c-0.649-0.649-1.013-1.529-1.013-2.447
		c0.025-23.631,19.173-42.782,42.804-42.81c1.911,0,3.459,1.549,3.459,3.459c0,1.911-1.549,3.459-3.459,3.459
		c-19.811,0.026-35.863,16.081-35.885,35.892c0,0.918-0.364,1.798-1.013,2.447C219.363,80.515,218.483,80.879,217.565,80.878z"/>
</g>
<g>
</g>
<g>
</g>
<g>
</g>
<g>
</g>
<g>
</g>
<g>
</g>
<g>
</g>
<g>
</g>
<g>
</g>
<g>
</g>
<g>
</g>
<g>
</g>
<g>
</g>
<g>
</g>
<g>
</g>
</svg>
