<svg height="512" viewBox="0 0 64 64" width="512" xmlns="http://www.w3.org/2000/svg" xmlns:xlink="http://www.w3.org/1999/xlink"><linearGradient id="New_Gradient_Swatch_3" gradientUnits="userSpaceOnUse" x1="32" x2="32" y1="63.977" y2="3.16"><stop offset="0" stop-color="#006df0"/><stop offset="1" stop-color="#00e7f0"/></linearGradient><linearGradient id="New_Gradient_Swatch_3-2" x1="16" x2="16" xlink:href="#New_Gradient_Swatch_3" y1="63.977" y2="3.16"/><linearGradient id="New_Gradient_Swatch_3-3" x1="49" x2="49" xlink:href="#New_Gradient_Swatch_3" y1="63.977" y2="3.16"/><linearGradient id="New_Gradient_Swatch_3-5" x1="55" x2="55" xlink:href="#New_Gradient_Swatch_3" y1="63.977" y2="3.16"/><linearGradient id="New_Gradient_Swatch_3-6" x1="43" x2="43" xlink:href="#New_Gradient_Swatch_3" y1="63.977" y2="3.16"/><linearGradient id="New_Gradient_Swatch_3-8" x1="30" x2="30" xlink:href="#New_Gradient_Swatch_3" y1="63.977" y2="3.16"/><linearGradient id="New_Gradient_Swatch_3-9" x1="34" x2="34" xlink:href="#New_Gradient_Swatch_3" y1="63.977" y2="3.16"/><path d="m47 32h-11v-1a3 3 0 0 0 -3-3v-3a1 1 0 0 1 1-1h23a5 5 0 0 0 0-10h-50a3 3 0 0 1 0-6h23a3 3 0 0 0 3-3v-2a1 1 0 0 0 -2 0v2a1 1 0 0 1 -1 1h-23a5 5 0 0 0 0 10h50a3 3 0 0 1 0 6h-23a3 3 0 0 0 -3 3v3a3 3 0 0 0 -3 3v1h-11a15.017 15.017 0 0 0 -15 15v1.629a13.236 13.236 0 0 0 12.849 13.371h.151a13 13 0 0 0 10.789-5.733 2.923 2.923 0 0 1 2.434-1.267h7.555a2.943 2.943 0 0 1 2.445 1.282 13 13 0 0 0 23.777-7.282v-2a15.017 15.017 0 0 0 -15-15zm-17-1a1 1 0 0 1 1-1h2a1 1 0 0 1 1 1v1h-4zm30 18a11.006 11.006 0 0 1 -20.122 6.16 4.941 4.941 0 0 0 -4.1-2.16h-7.555a4.922 4.922 0 0 0 -4.093 2.146 11.046 11.046 0 0 1 -9.259 4.854 11.229 11.229 0 0 1 -10.871-11.371v-1.629a13.015 13.015 0 0 1 13-13h30a13.015 13.015 0 0 1 13 13z" fill="url(#New_Gradient_Swatch_3)"/><path d="m23 44h-4v-4a1 1 0 0 0 -1-1h-4a1 1 0 0 0 -1 1v4h-4a1 1 0 0 0 -1 1v4a1 1 0 0 0 1 1h4v4a1 1 0 0 0 1 1h4a1 1 0 0 0 1-1v-4h4a1 1 0 0 0 1-1v-4a1 1 0 0 0 -1-1zm-1 4h-4a1 1 0 0 0 -1 1v4h-2v-4a1 1 0 0 0 -1-1h-4v-2h4a1 1 0 0 0 1-1v-4h2v4a1 1 0 0 0 1 1h4z" fill="url(#New_Gradient_Swatch_3-2)"/><path d="m49 44a3 3 0 1 0 -3-3 3 3 0 0 0 3 3zm0-4a1 1 0 1 1 -1 1 1 1 0 0 1 1-1z" fill="url(#New_Gradient_Swatch_3-3)"/><path d="m49 50a3 3 0 1 0 3 3 3 3 0 0 0 -3-3zm0 4a1 1 0 1 1 1-1 1 1 0 0 1 -1 1z" fill="url(#New_Gradient_Swatch_3-3)"/><path d="m52.879 44.878a3 3 0 1 0 4.243 0 3.074 3.074 0 0 0 -4.243 0zm2.828 2.829a1.023 1.023 0 0 1 -1.414 0 1 1 0 1 1 1.414-1.414 1 1 0 0 1 0 1.414z" fill="url(#New_Gradient_Swatch_3-5)"/><path d="m43 44a3 3 0 1 0 3 3 3 3 0 0 0 -3-3zm0 4a1 1 0 1 1 1-1 1 1 0 0 1 -1 1z" fill="url(#New_Gradient_Swatch_3-6)"/><path d="m37 36h-10a1 1 0 0 0 0 2h10a1 1 0 0 0 0-2z" fill="url(#New_Gradient_Swatch_3)"/><path d="m31.707 47.293a1 1 0 0 0 -1.414 0l-2 2a1 1 0 1 0 1.414 1.414l2-2a1 1 0 0 0 0-1.414z" fill="url(#New_Gradient_Swatch_3-8)"/><path d="m34.293 47.293-2 2a1 1 0 1 0 1.414 1.414l2-2a1 1 0 0 0 -1.414-1.414z" fill="url(#New_Gradient_Swatch_3-9)"/></svg>