<svg id="Capa_1" enable-background="new 0 0 512.033 512.033" height="512" viewBox="0 0 512.033 512.033" width="512" xmlns="http://www.w3.org/2000/svg"><path d="m186.727 103.695c11.285 27.165 38.088 46.321 69.289 46.321 41.355 0 75-33.645 75-75s-33.645-75-75-75c-40.958 0-74.332 33.007-74.97 73.815-86.24 30.578-150.03 112.842-150.03 212.185h30c0-80.917 51.002-153.856 125.711-182.321zm69.289-73.679c24.813 0 45 20.187 45 45s-20.187 45-45 45-45-20.187-45-45 20.186-45 45-45z"/><path d="m256.016 482.016c-45.084 0-88.191-15.379-122.867-43.57 18.789-23.005 23.139-56.68 6.829-84.93-20.677-35.814-66.636-48.131-102.452-27.452-35.897 20.725-48.18 66.55-27.451 102.452 20.049 34.725 63.76 47.532 99.311 29.158 40.807 35.114 92.483 54.342 146.631 54.342 33.736 0 66.182-7.288 96.437-21.66l-12.873-27.098c-26.203 12.447-54.317 18.758-83.565 18.758zm-219.961-68.5c-12.435-21.539-5.07-49.034 16.471-61.471 21.49-12.407 49.066-5.017 61.472 16.471 12.434 21.538 5.071 49.034-16.472 61.471-21.538 12.436-49.035 5.071-61.471-16.471z"/><path d="m477.146 327.676c2.56-13.682 3.87-27.644 3.87-41.659 0-73.517-36.044-142.549-96.419-184.662l-17.162 24.605c52.336 36.506 83.581 96.34 83.581 160.057 0 10.384-.835 20.728-2.455 30.914-29.712-4.598-60.594 9.026-76.507 36.586-20.726 35.898-8.451 81.725 27.452 102.452 35.915 20.737 81.734 8.431 102.451-27.451 20.233-35.045 9.005-79.459-24.811-100.842zm-1.169 85.84c-12.433 21.536-39.926 28.909-61.471 16.471-21.538-12.434-28.908-39.929-16.472-61.471 12.349-21.388 39.889-28.932 61.472-16.471 21.539 12.436 28.907 39.93 16.471 61.471z"/></svg>