<svg height="512" viewBox="0 0 64 64" width="512" xmlns="http://www.w3.org/2000/svg"><g id="Network-2" data-name="Network"><path d="m32 52a20 20 0 1 1 20-20 20.023 20.023 0 0 1 -20 20zm0-38a18 18 0 1 0 18 18 18.021 18.021 0 0 0 -18-18z" fill="#ff9811"/><path d="m24 58v3h-16v-3a6.009 6.009 0 0 1 6-6l2 2 2-2a6.009 6.009 0 0 1 6 6z" fill="#ffde55"/><path d="m22 46.13v-3.13a6 6 0 0 0 -6-6 6.009 6.009 0 0 0 -6 6v3.13a4 4 0 0 0 -.27 7.66 5.958 5.958 0 0 1 4.27-1.79v-2.54a4.225 4.225 0 0 1 -.83-.63 4 4 0 0 1 -1.16-2.7.57.57 0 0 1 -.01-.13v-2h1.34a4 4 0 0 0 2.83-1.17l.83-.83 1.41 1.41a2.006 2.006 0 0 0 1.42.59h.17v2a.57.57 0 0 1 -.01.13 3.965 3.965 0 0 1 -1.99 3.33v2.54a5.958 5.958 0 0 1 4.27 1.79 4 4 0 0 0 -.27-7.66z" fill="#8b5e3c"/><path d="m14 49v.46.54 2l2 2 2-2v-2-.54-.46z" fill="#ffb655"/><path d="m18 49.46v1a3.974 3.974 0 0 1 -4 0v-1a3.974 3.974 0 0 0 4 0z" fill="#ffa733"/><path d="m19.83 44a2.006 2.006 0 0 1 -1.42-.59l-1.41-1.41-.83.83a4 4 0 0 1 -2.83 1.17h-1.34v2a4 4 0 0 0 8 0v-2z" fill="#ffc477"/><path d="m24 24v3h-16v-3a6 6 0 0 1 6-6l2 2 2-2a6 6 0 0 1 6 6z" fill="#3d9ae2"/><path d="m18 15.46v2.54l-2 2-2-2v-2.54a3.974 3.974 0 0 0 4 0z" fill="#ffb655"/><path d="m21 8v2h-1.17a2.006 2.006 0 0 1 -1.42-.59l-1.41-1.41-.83.83a4 4 0 0 1 -2.83 1.17h-2.34v-2a5 5 0 0 1 10 0z" fill="#787680"/><path d="m20 10v2a3.994 3.994 0 0 1 -6 3.46 4.225 4.225 0 0 1 -.83-.63 4.025 4.025 0 0 1 -1.17-2.83v-2h1.34a4 4 0 0 0 2.83-1.17l.83-.83 1.41 1.41a2.006 2.006 0 0 0 1.42.59z" fill="#ffc477"/><path d="m18 15.46v1a3.974 3.974 0 0 1 -4 0v-1a3.974 3.974 0 0 0 4 0z" fill="#ffa733"/><path d="m56 58v3h-16v-3a6 6 0 0 1 6-6l2 2 2-2a6 6 0 0 1 6 6z" fill="#ff6243"/><path d="m50 49.46v2.54l-2 2-2-2v-2.54a3.974 3.974 0 0 0 4 0z" fill="#ffb655"/><path d="m53 42v2h-1.17a2.006 2.006 0 0 1 -1.42-.59l-1.41-1.41-.83.83a4 4 0 0 1 -2.83 1.17h-2.34v-2a5 5 0 0 1 10 0z" fill="#787680"/><path d="m52 44v2a3.994 3.994 0 0 1 -6 3.46 4.225 4.225 0 0 1 -.83-.63 4.025 4.025 0 0 1 -1.17-2.83v-2h1.34a4 4 0 0 0 2.83-1.17l.83-.83 1.41 1.41a2.006 2.006 0 0 0 1.42.59z" fill="#ffc477"/><path d="m50 49.46v1a3.974 3.974 0 0 1 -4 0v-1a3.974 3.974 0 0 0 4 0z" fill="#ffa733"/><path d="m56 24v3h-16v-3a6.009 6.009 0 0 1 6-6l2 2 2-2a6.009 6.009 0 0 1 6 6z" fill="#00ccb3"/><path d="m54 12.13v-3.13a6 6 0 0 0 -6-6 6.009 6.009 0 0 0 -6 6v3.13a4 4 0 0 0 -.27 7.66 5.958 5.958 0 0 1 4.27-1.79v-2.54a4.225 4.225 0 0 1 -.83-.63 4 4 0 0 1 -1.16-2.7.57.57 0 0 1 -.01-.13v-2h1.34a4 4 0 0 0 2.83-1.17l.83-.83 1.41 1.41a2.006 2.006 0 0 0 1.42.59h.17v2a.57.57 0 0 1 -.01.13 3.965 3.965 0 0 1 -1.99 3.33v2.54a5.958 5.958 0 0 1 4.27 1.79 4 4 0 0 0 -.27-7.66z" fill="#8b5e3c"/><path d="m46 15v.46.54 2l2 2 2-2v-2-.54-.46z" fill="#ffb655"/><path d="m50 15.46v1a3.974 3.974 0 0 1 -4 0v-1a3.974 3.974 0 0 0 4 0z" fill="#ffa733"/><path d="m51.83 10a2.006 2.006 0 0 1 -1.42-.59l-1.41-1.41-.83.83a4 4 0 0 1 -2.83 1.17h-1.34v2a4 4 0 0 0 8 0v-2z" fill="#ffc477"/><g fill="#ee8700"><path d="m31 8h2v2h-2z"/><path d="m27.006 8.35h1.999v2h-1.999z" transform="matrix(.985 -.174 .174 .985 -1.199 5.01)"/><path d="m8 31h2v2h-2z"/><path d="m8.349 34.994h2v2h-2z" transform="matrix(.985 -.174 .174 .985 -6.114 2.173)"/><path d="m27.006 53.651h2v1.999h-2z" transform="matrix(.174 -.985 .985 .174 -30.682 72.726)"/><path d="m31 54h2v2h-2z"/><path d="m34.995 53.65h1.999v2h-1.999z" transform="matrix(.985 -.174 .174 .985 -8.951 7.088)"/><path d="m53.651 34.994h2v2h-2z" transform="matrix(.174 -.985 .985 .174 9.717 83.568)"/><path d="m54 31h2v2h-2z"/><path d="m34.994 8.35h2v1.999h-2z" transform="matrix(.174 -.985 .985 .174 20.528 43.169)"/></g></g></svg>