<svg height="374pt" viewBox="-41 0 374 374.10622" width="374pt" xmlns="http://www.w3.org/2000/svg"><path d="m123.820312 230.09375c-2.046874.003906-3.996093-.894531-5.324218-2.453125l-36.976563-43.300781c-2.511719-2.941406-2.164062-7.359375.777344-9.871094 2.941406-2.507812 7.359375-2.160156 9.871094.777344l32.535156 38.101562 80.808594-65.742187c3-2.441407 7.410156-1.988281 9.847656 1.011719 2.441406 3 1.988281 7.410156-1.011719 9.847656l-86.117187 70.058594c-1.242188 1.015624-2.800781 1.570312-4.410157 1.570312zm0 0" fill="#1ae5be"/><path d="m121.511719 365.253906 18.976562 8.269532c1.773438.773437 3.792969.777343 5.570313.007812l21.382812-9.234375c75.078125-31.53125 123.921875-105.015625 123.929688-186.445313v-95.925781c0-2.585937-1.425782-4.964843-3.707032-6.179687l-140.605468-74.921875c-2.085938-1.113281-4.585938-1.097657-6.65625.039062l-136.714844 74.921875c-2.242188 1.230469-3.6328125 3.582032-3.6328125 6.140625v97.867188c.0820315 80.449219 47.7460935 153.230469 121.4570315 185.460937zm-107.457031-279.183594 129.757812-71.117187 133.558594 71.167969v91.730468c-.015625 75.816407-45.503906 144.226563-115.410156 173.566407l-.050782.023437-18.617187 8.039063-16.179688-7.058594c-68.613281-30-112.984375-97.742187-113.0625-172.628906zm0 0" fill="#0635c9"/><path d="m191.960938 311.414062-.046876.019532-18.621093 8.042968-16.179688-7.054687c-68.613281-30-112.984375-97.742187-113.0625-172.628906v-70.164063l-30 16.441406v93.722657c.078125 74.886719 44.449219 142.628906 113.0625 172.628906l16.175781 7.054687 18.621094-8.042968.046875-.019532c38.75-16.316406 70.949219-45.089843 91.5-81.765624-17.539062 17.84375-38.441406 32.039062-61.496093 41.765624zm0 0" fill="#d4e1f4"/></svg>