<svg height="512" viewBox="0 0 128 128" width="512" xmlns="http://www.w3.org/2000/svg" xmlns:xlink="http://www.w3.org/1999/xlink"><linearGradient id="a" gradientUnits="userSpaceOnUse" x1="100.249" x2="28.17" y1="106.716" y2="34.637"><stop offset="0" stop-color="#b373f0"/><stop offset="1" stop-color="#01ebcd"/></linearGradient><path d="m102.527 41.553a18.116 18.116 0 0 0 -5.986-6.528v-2.953a3.778 3.778 0 0 0 -3.774-3.772h-10.827a3.778 3.778 0 0 0 -3.774 3.774v3.712c-6.293 2.534-14.054 2.455-14.195 2.455-.084 0-7.831.088-14.137-2.454v-3.715a3.778 3.778 0 0 0 -3.774-3.772h-10.827a1.75 1.75 0 0 0 0 3.5h10.827a.274.274 0 0 1 .274.274v2.073c-8.104-3.537-16.334-.689-20.861 7.406a28.1 28.1 0 0 0 -2.167 5.512 1.75 1.75 0 1 0 3.351 1.008 25.331 25.331 0 0 1 1.871-4.813c3.857-6.9 10.783-8.986 17.646-5.311.4.215.811.415 1.226.606a29.278 29.278 0 0 0 4.3 1.556v9.019a1.749 1.749 0 0 0 1.75 1.75h21.1a1.749 1.749 0 0 0 1.75-1.75v-5.186a1.75 1.75 0 0 0 -3.5 0v3.436h-17.6v-6.459a49.432 49.432 0 0 0 8.771.818c.4 0 9.455.114 16.625-3.182.415-.191.825-.391 1.225-.606 6.862-3.678 13.788-1.593 17.647 5.311 4.507 8.067 8.259 40.1 8.259 49.646a2.824 2.824 0 0 1 -1.506 2.7c-2.019 1.11-6.279.82-11.247-2.334a1.75 1.75 0 1 0 -1.874 2.951 20.1 20.1 0 0 0 10.386 3.475 9.134 9.134 0 0 0 4.425-1.029 6.293 6.293 0 0 0 3.321-5.765c0-8.647-3.612-42.24-8.705-51.353zm-20.861-7.408v-2.073a.274.274 0 0 1 .274-.274h10.827a.274.274 0 0 1 .274.274v1.292a15.939 15.939 0 0 0 -11.375.781zm8.762 55.545a1.75 1.75 0 1 1 -2.41 2.539c-.18-.17-.362-.346-.541-.523a1.75 1.75 0 1 1 2.453-2.5q.249.249.498.484zm-4.432-5a1.75 1.75 0 1 1 -2.8 2.1 53.273 53.273 0 0 1 -3.645-5.559 10.632 10.632 0 0 0 -9.239-5.283h-12.627a10.633 10.633 0 0 0 -9.239 5.283c-7.209 12.604-16.846 18.485-23.824 18.486a10.694 10.694 0 0 1 -2.759-.344 6.445 6.445 0 0 1 -5.095-6.467c0-6.052 1.467-20.779 3.652-33.055a1.75 1.75 0 0 1 3.446.613c-2.12 11.916-3.6 26.661-3.6 32.442a2.972 2.972 0 0 0 2.5 3.084c4.76 1.272 14.933-3.013 22.645-16.49a14.142 14.142 0 0 1 12.277-7.045h12.63a14.137 14.137 0 0 1 12.273 7.045 49.782 49.782 0 0 0 3.409 5.193zm-64.358-31.041.172-.776a1.75 1.75 0 0 1 3.416.762l-.168.759a1.749 1.749 0 0 1 -1.708 1.377 1.712 1.712 0 0 1 -.374-.04 1.75 1.75 0 0 1 -1.338-2.082zm63.549-6.269a4.795 4.795 0 1 0 4.8 4.795 4.8 4.8 0 0 0 -4.8-4.795zm0 6.09a1.3 1.3 0 1 1 1.3-1.3 1.3 1.3 0 0 1 -1.3 1.3zm0 9.06a4.8 4.8 0 1 0 4.8 4.8 4.8 4.8 0 0 0 -4.8-4.8zm0 6.09a1.3 1.3 0 1 1 1.3-1.3 1.3 1.3 0 0 1 -1.3 1.3zm-12.37-8.87a4.8 4.8 0 1 0 4.8-4.8 4.8 4.8 0 0 0 -4.8 4.8zm6.09 0a1.3 1.3 0 1 1 -1.3-1.3 1.3 1.3 0 0 1 1.3 1.3zm12.561 0a1.3 1.3 0 0 0 1.3 1.3 1.75 1.75 0 0 1 0 3.5 4.8 4.8 0 1 1 4.8-4.8 1.75 1.75 0 0 1 -3.5 0 1.3 1.3 0 0 0 -2.59 0zm-48.255-3.437v-4.146h-3.375v4.146a1.751 1.751 0 0 1 -1.75 1.75h-4.146v3.375h4.146a1.75 1.75 0 0 1 1.75 1.75v4.145h3.375v-4.145a1.75 1.75 0 0 1 1.75-1.75h4.146v-5.125a1.75 1.75 0 0 1 3.5 0v6.875a1.751 1.751 0 0 1 -1.75 1.75h-4.146v4.145a1.75 1.75 0 0 1 -1.75 1.75h-6.875a1.75 1.75 0 0 1 -1.75-1.75v-4.145h-4.146a1.751 1.751 0 0 1 -1.75-1.75v-6.875a1.75 1.75 0 0 1 1.75-1.75h4.146v-4.146a1.75 1.75 0 0 1 1.75-1.75h6.875a1.75 1.75 0 0 1 1.75 1.75v5.9a1.75 1.75 0 0 1 -3.5 0z" fill="url(#a)"/></svg>